<svg xmlns="http://www.w3.org/2000/svg" xmlns:xlink="http://www.w3.org/1999/xlink" width="1080" zoomAndPan="magnify" viewBox="0 0 810 809.999993" height="1080" preserveAspectRatio="xMidYMid meet" version="1.0"><defs><clipPath id="b4e34fc6fd"><path d="M 361 0.105469 L 449 0.105469 L 449 28 L 361 28 Z M 361 0.105469 " clip-rule="nonzero"/></clipPath><clipPath id="33014beeba"><path d="M 221.277344 164 L 588.777344 164 L 588.777344 656.355469 L 221.277344 656.355469 Z M 221.277344 164 " clip-rule="nonzero"/></clipPath></defs><path fill="#ffde59" d="M 339.246094 121.425781 C 334.574219 121.425781 330.785156 125.605469 330.785156 130.746094 L 330.785156 139.570312 C 330.785156 144.710938 334.574219 148.890625 339.246094 148.890625 L 470.972656 148.890625 C 475.652344 148.890625 479.445312 144.710938 479.445312 139.570312 L 479.445312 130.746094 C 479.445312 125.605469 475.652344 121.425781 470.972656 121.425781 Z M 339.246094 121.425781 " fill-opacity="1" fill-rule="nonzero"/><path fill="#ffde59" d="M 339.246094 81.269531 C 334.574219 81.269531 330.785156 85.453125 330.785156 90.601562 L 330.785156 99.421875 C 330.785156 104.566406 334.574219 108.746094 339.246094 108.746094 L 470.972656 108.746094 C 475.652344 108.746094 479.445312 104.566406 479.445312 99.421875 L 479.445312 90.601562 C 479.445312 85.449219 475.652344 81.269531 470.972656 81.269531 Z M 339.246094 81.269531 " fill-opacity="1" fill-rule="nonzero"/><path fill="#ffde59" d="M 339.246094 41.121094 C 334.574219 41.121094 330.785156 45.300781 330.785156 50.445312 L 330.785156 59.265625 C 330.785156 64.417969 334.574219 68.597656 339.246094 68.597656 L 470.972656 68.597656 C 475.652344 68.597656 479.445312 64.417969 479.445312 59.265625 L 479.445312 50.445312 C 479.445312 45.300781 475.652344 41.121094 470.972656 41.121094 Z M 339.246094 41.121094 " fill-opacity="1" fill-rule="nonzero"/><g clip-path="url(#b4e34fc6fd)"><path fill="#ffde59" d="M 361.707031 27.078125 C 369.660156 11.222656 386.066406 0.105469 405.007812 0.105469 C 423.835938 0.105469 440.511719 11.386719 448.53125 27.070312 L 361.707031 27.070312 Z M 361.707031 27.078125 " fill-opacity="1" fill-rule="nonzero"/></g><g clip-path="url(#33014beeba)"><path fill="#ffde59" d="M 405.121094 656.355469 C 506.542969 656.355469 588.777344 574.128906 588.777344 472.695312 C 588.777344 439.300781 579.398438 408.253906 564.292969 381 C 519.1875 299.742188 507.238281 254.113281 499.882812 209.949219 C 493.707031 172.9375 485.160156 164.339844 457.199219 164.339844 L 353.039062 164.339844 C 325.070312 164.339844 316.527344 172.941406 310.351562 209.949219 C 302.992188 254.105469 291.042969 299.742188 245.9375 381 C 230.832031 408.253906 221.460938 439.300781 221.460938 472.695312 C 221.460938 574.128906 303.6875 656.355469 405.121094 656.355469 Z M 405.121094 656.355469 " fill-opacity="1" fill-rule="nonzero"/></g><path stroke-linecap="butt" transform="matrix(0.529272, -0.529272, 0.53033, 0.53033, 152.670889, 712.162544)" fill="none" stroke-linejoin="miter" d="M -0.000502528 1.998465 L 125.252725 1.998465 " stroke="#000000" stroke-width="4" stroke-opacity="1" stroke-miterlimit="4"/><path stroke-linecap="butt" transform="matrix(0.000000000000000046, -0.748503, 0.75, 0.000000000000000046, 401.99843, 779.967821)" fill="none" stroke-linejoin="miter" d="M -0.00124146 2.002093 L 125.253983 2.002093 " stroke="#000000" stroke-width="4" stroke-opacity="1" stroke-miterlimit="4"/><path stroke-linecap="butt" transform="matrix(-0.612149, -0.430733, 0.431594, -0.613373, 665.605866, 702.249057)" fill="none" stroke-linejoin="miter" d="M -0.000532668 1.998538 L 125.256968 1.999489 " stroke="#000000" stroke-width="4" stroke-opacity="1" stroke-miterlimit="4"/></svg>